<svg width="48" height="48" viewBox="0 0 48 48" fill="none" xmlns="http://www.w3.org/2000/svg">
<rect width="48" height="48" rx="24" fill="#F42D2D"/>
<path d="M26.6279 27.87H21.4079L20.9759 11.094H27.0959L26.6279 27.87ZM24.0359 30.138C24.9959 30.138 25.7999 30.426 26.4479 31.002C27.1199 31.578 27.4559 32.43 27.4559 33.558C27.4559 34.11 27.3599 34.602 27.1679 35.034C26.9759 35.442 26.7239 35.79 26.4119 36.078C26.0999 36.342 25.7399 36.546 25.3319 36.69C24.9239 36.834 24.4919 36.906 24.0359 36.906C23.0999 36.906 22.2839 36.63 21.5879 36.078C20.8919 35.526 20.5439 34.686 20.5439 33.558C20.5439 32.43 20.8799 31.578 21.5519 31.002C22.2479 30.426 23.0759 30.138 24.0359 30.138Z" fill="white"/>
</svg>
