<svg width="32" height="32" viewBox="0 0 32 32" fill="none" xmlns="http://www.w3.org/2000/svg">
<path fill-rule="evenodd" clip-rule="evenodd" d="M6.00123 12.0066C6.00123 6.33137 10.4431 1.66663 16.0001 1.66663C21.557 1.66663 25.9989 6.33138 25.9989 12.0066V12.9461C25.9989 13.8842 26.2666 14.7984 26.7644 15.5734L28.241 17.8722C29.9333 20.507 28.6708 24.1363 25.6453 24.9927C19.3307 26.7802 12.6694 26.7802 6.35485 24.9927C3.32931 24.1363 2.0668 20.507 3.75916 17.8722L5.23574 15.5734C5.73352 14.7984 6.00123 13.8842 6.00123 12.9461V12.0066ZM16.0001 3.66663C11.6172 3.66663 8.00123 7.36516 8.00123 12.0066V12.9461C8.00123 14.2628 7.62586 15.553 6.91851 16.6543L5.44193 18.9531C4.43686 20.5178 5.23361 22.5967 6.89958 23.0683C12.858 24.7549 19.1421 24.7549 25.1006 23.0683C26.7665 22.5967 27.5633 20.5179 26.5582 18.9531L25.0816 16.6543C24.3743 15.553 23.9989 14.2628 23.9989 12.9461V12.0066C23.9989 7.36516 20.383 3.66663 16.0001 3.66663Z" fill="white"/>
<path fill-rule="evenodd" clip-rule="evenodd" d="M15.9998 28.3334C13.6303 28.3334 11.6576 26.9074 10.9362 24.9824C10.7424 24.4653 10.166 24.2032 9.64884 24.397C9.13169 24.5908 8.86957 25.1672 9.06338 25.6843C10.0887 28.4202 12.8291 30.3334 15.9998 30.3334C19.1704 30.3334 21.9109 28.4202 22.9362 25.6843C23.13 25.1672 22.8679 24.5908 22.3507 24.397C21.8336 24.2032 21.2572 24.4653 21.0634 24.9824C20.342 26.9074 18.3692 28.3334 15.9998 28.3334Z" fill="white"/>
<path fill-rule="evenodd" clip-rule="evenodd" d="M16 7C16.5523 7 17 7.44772 17 8V13.3333C17 13.8856 16.5523 14.3333 16 14.3333C15.4477 14.3333 15 13.8856 15 13.3333V8C15 7.44772 15.4477 7 16 7Z" fill="white"/>
</svg>
