<svg width="24" height="24" viewBox="0 0 24 24" fill="none" xmlns="http://www.w3.org/2000/svg">
<path fill-rule="evenodd" clip-rule="evenodd" d="M12.25 2.83417C11.7896 2.75594 11.162 2.75 10.0298 2.75C8.11311 2.75 6.75075 2.75158 5.71785 2.88982C4.70596 3.02525 4.12453 3.27928 3.7019 3.70191C3.27869 4.12512 3.02502 4.70476 2.88976 5.71085C2.75159 6.73852 2.75 8.09318 2.75 10V14C2.75 15.9068 2.75159 17.2615 2.88976 18.2892C3.02502 19.2952 3.27869 19.8749 3.7019 20.2981C4.12511 20.7213 4.70476 20.975 5.71085 21.1102C6.73851 21.2484 8.09318 21.25 10 21.25H14C15.9068 21.25 17.2615 21.2484 18.2892 21.1102C19.2952 20.975 19.8749 20.7213 20.2981 20.2981C20.7213 19.8749 20.975 19.2952 21.1102 18.2892C21.2484 17.2615 21.25 15.9068 21.25 14V13.5629C21.25 12.0269 21.2392 11.2987 21.0762 10.75H17.9463C16.8135 10.75 15.8877 10.75 15.1569 10.6518C14.3929 10.5491 13.7306 10.3268 13.2019 9.7981C12.6732 9.26941 12.4509 8.60707 12.3482 7.84312C12.25 7.11226 12.25 6.18653 12.25 5.05369V2.83417ZM13.75 3.60945V5.00001C13.75 6.19972 13.7516 7.02406 13.8348 7.64325C13.9152 8.24087 14.059 8.5339 14.2626 8.73744C14.4661 8.94098 14.7591 9.08482 15.3568 9.16516C15.976 9.24841 16.8003 9.25 18 9.25H20.0195C19.723 8.96246 19.3432 8.61792 18.85 8.17402L14.8912 4.61112C14.4058 4.17428 14.0446 3.85183 13.75 3.60945ZM10.1755 1.24998C11.5601 1.24961 12.4546 1.24937 13.2779 1.56531C14.1012 1.88124 14.7632 2.4773 15.7873 3.39951C15.8226 3.43134 15.8584 3.46357 15.8947 3.49618L19.8534 7.05908C19.8956 7.09701 19.9372 7.13445 19.9783 7.17145C21.162 8.23609 21.9274 8.92454 22.3391 9.84897C22.7508 10.7734 22.7505 11.8029 22.75 13.3949C22.75 13.4502 22.75 13.5062 22.75 13.5629V14.0564C22.75 15.8942 22.75 17.3498 22.5969 18.489C22.4392 19.6615 22.1071 20.6104 21.3588 21.3588C20.6104 22.1071 19.6614 22.4392 18.489 22.5969C17.3498 22.75 15.8942 22.75 14.0564 22.75H9.94359C8.10583 22.75 6.65019 22.75 5.51098 22.5969C4.33856 22.4392 3.38961 22.1071 2.64124 21.3588C1.89288 20.6104 1.56076 19.6615 1.40314 18.489C1.24997 17.3498 1.24998 15.8942 1.25 14.0564V9.94359C1.24998 8.10583 1.24997 6.6502 1.40314 5.51098C1.56076 4.33856 1.89288 3.38961 2.64124 2.64125C3.39019 1.8923 4.34232 1.56055 5.51887 1.40308C6.66283 1.24998 8.1257 1.24999 9.97352 1.25L10.0298 1.25C10.0789 1.25 10.1275 1.24999 10.1755 1.24998Z" fill="#1C274C"/>
</svg>
