<svg width="363" height="76" viewBox="0 0 363 76" fill="none" xmlns="http://www.w3.org/2000/svg">
<path d="M285.175 49.9027H306.418C306.754 51.886 307.727 53.6134 309.338 55.0849C310.949 56.5564 313.096 57.708 315.781 58.5397C318.533 59.3074 321.755 59.6913 325.446 59.6913C330.548 59.6913 334.575 59.0835 337.528 57.8679C340.481 56.5883 341.958 54.733 341.958 52.3018C341.958 50.4465 341.119 49.007 339.441 47.9833C337.763 46.9597 334.541 46.2239 329.776 45.7761L315.681 44.5285C305.277 43.6328 297.726 41.3936 293.028 37.8109C288.329 34.1641 285.98 29.2698 285.98 23.128C285.98 18.1377 287.49 13.9152 290.511 10.4604C293.598 7.00557 297.894 4.41447 303.398 2.68707C308.969 0.895689 315.446 0 322.829 0C330.078 0 336.521 0.991656 342.159 2.97497C347.797 4.8943 352.261 7.64534 355.55 11.2281C358.906 14.8109 360.718 18.9694 360.986 23.7038H339.844C339.575 21.9764 338.703 20.5049 337.226 19.2893C335.816 18.0097 333.87 17.0501 331.387 16.4103C328.903 15.7065 325.916 15.3547 322.426 15.3547C317.728 15.3547 314.003 15.9625 311.251 17.178C308.499 18.3296 307.123 20.057 307.123 22.3602C307.123 24.0237 307.928 25.3672 309.539 26.3908C311.217 27.4145 314.204 28.1182 318.5 28.5021L333.501 29.9416C340.683 30.5814 346.421 31.701 350.717 33.3004C355.013 34.8359 358.134 36.9792 360.08 39.7302C362.027 42.4812 363 45.9041 363 49.9986C363 55.0529 361.423 59.4673 358.268 63.242C355.113 66.9527 350.684 69.8637 344.978 71.975C339.273 74.0223 332.628 75.0459 325.044 75.0459C317.258 75.0459 310.378 74.0223 304.404 71.975C298.498 69.8637 293.867 66.9208 290.511 63.1461C287.155 59.3074 285.376 54.8929 285.175 49.9027Z" fill="#1B2037"/>
<path d="M222.588 40.658C222.588 43.9891 223.224 46.8955 224.497 49.3775C225.836 51.7941 227.779 53.6556 230.324 54.9618C232.936 56.2681 236.118 56.9213 239.869 56.9213C243.687 56.9213 246.868 56.2681 249.414 54.9618C251.959 53.6556 253.868 51.7941 255.141 49.3775C256.413 46.8955 257.05 43.9891 257.05 40.658V0H277.948V41.6378C277.948 48.3651 276.34 54.2434 273.125 59.2726C269.977 64.2364 265.556 68.1226 259.863 70.9311C254.169 73.6743 247.505 75.0459 239.869 75.0459C232.3 75.0459 225.635 73.6743 219.875 70.9311C214.182 68.1226 209.727 64.2364 206.512 59.2726C203.364 54.2434 201.79 48.3651 201.79 41.6378V0H222.588V40.658Z" fill="#1B2037"/>
<path d="M167.302 38.4306L169.008 34.5173C174.827 34.6511 179.61 35.5542 183.356 37.2265C187.169 38.832 190.012 41.1064 191.885 44.0497C193.758 46.9261 194.695 50.2708 194.695 54.0838C194.695 58.1643 193.758 61.81 191.885 65.021C190.012 68.165 187.203 70.6735 183.457 72.5465C179.778 74.3527 175.162 75.2557 169.61 75.2557H114.021V36.6241V0H167.603C174.56 0 179.978 1.6389 183.858 4.91671C187.738 8.12762 189.678 12.6095 189.678 18.3624C189.678 21.5064 188.942 24.5166 187.47 27.3931C185.999 30.2695 183.624 32.7112 180.346 34.718C177.135 36.6579 172.787 37.8954 167.302 38.4306ZM134.591 70.4394L126.563 60.7063H163.991C167.001 60.7063 169.342 59.9705 171.014 58.4988C172.687 57.0271 173.523 54.9869 173.523 52.378C173.523 49.7691 172.62 47.6954 170.814 46.1568C169.008 44.5514 166.332 43.7487 162.786 43.7487H131.881V29.5002H159.977C162.385 29.5002 164.392 28.7979 165.997 27.3931C167.67 25.9214 168.506 23.948 168.506 21.473C168.506 19.4662 167.804 17.8272 166.399 16.5563C164.994 15.2184 162.987 14.5494 160.378 14.5494H126.664L134.591 4.81637V37.2265V70.4394Z" fill="#1B2037"/>
<path d="M76.3927 29.2661H101.478V44.8791H76.3927V29.2661Z" fill="#black"/>
<path d="M0 75.2557H69.9376L66.3588 58.3984H3.57883L0 75.2557Z" fill="#0029FF"/>
<path d="M6.48234 45.1534H63.4553L62.1779 37.6279L63.4553 30.1023H6.48234L7.7597 37.6279L6.48234 45.1534Z" fill="#0029FF"/>
<path d="M3.57883 16.7235H66.3588L69.4359 0H0.501707L3.57883 16.7235Z" fill="#0029FF"/>
</svg>
