<svg width="24" height="24" viewBox="0 0 24 24" fill="none" xmlns="http://www.w3.org/2000/svg">
<path fill-rule="evenodd" clip-rule="evenodd" d="M22.75 4.9332C22.75 3.46989 21.5847 2.21495 20.0559 2.26821C18.9175 2.30786 17.4296 2.42627 16.2849 2.76895C15.2899 3.06684 14.1706 3.64869 13.2982 4.15363C12.4801 4.62709 11.4617 4.65071 10.6328 4.21245C9.63736 3.68606 8.32766 3.06212 7.19136 2.76227C6.23055 2.50873 5.01517 2.38695 4.02841 2.32631C2.47017 2.23054 1.25 3.49865 1.25 4.99781V16.1436C1.25 17.6798 2.49378 18.8792 3.96804 18.9714C4.9268 19.0313 6.00566 19.1467 6.80864 19.3585C7.8012 19.6205 9.0286 20.2028 10.0196 20.7311C11.2529 21.3885 12.7471 21.3885 13.9804 20.7311C14.9714 20.2028 16.1988 19.6205 17.1914 19.3585C17.9943 19.1467 19.0732 19.0313 20.032 18.9714C21.5062 18.8792 22.75 17.6798 22.75 16.1436V4.9332ZM20.1081 3.7673C20.7229 3.74588 21.25 4.25161 21.25 4.9332V16.1436C21.25 16.8293 20.6817 17.4278 19.9383 17.4743C18.9582 17.5356 17.7591 17.6574 16.8086 17.9082C15.6383 18.217 14.2827 18.8701 13.2748 19.4074C13.1065 19.4971 12.9305 19.5677 12.75 19.6193V5.94204C13.2023 5.8515 13.6421 5.68768 14.0495 5.45188C14.9 4.95969 15.8949 4.45149 16.7151 4.20594C17.6643 3.92179 18.9892 3.80627 20.1081 3.7673ZM11.25 5.97498C10.795 5.90423 10.349 5.75915 9.93167 5.53848C8.95486 5.02197 7.77076 4.46651 6.80864 4.21263C5.99643 3.9983 4.90238 3.88285 3.93639 3.82348C3.30243 3.78452 2.75 4.30062 2.75 4.99781V16.1436C2.75 16.8293 3.31831 17.4278 4.06168 17.4743C5.04176 17.5356 6.24092 17.6574 7.19136 17.9082C8.3617 18.217 9.71727 18.8701 10.7252 19.4074C10.8935 19.4971 11.0695 19.5677 11.25 19.6193V5.97498Z" fill="#1C274D"/>
</svg>
