<svg width="25" height="24" viewBox="0 0 25 24" fill="none" xmlns="http://www.w3.org/2000/svg">
<path fill-rule="evenodd" clip-rule="evenodd" d="M3.75 10.1433C3.75 5.24427 7.65501 1.25 12.5 1.25C17.345 1.25 21.25 5.24427 21.25 10.1433C21.25 12.5084 20.576 15.0479 19.3844 17.2419C18.1944 19.4331 16.4556 21.3372 14.2805 22.3539C13.1506 22.882 11.8494 22.882 10.7195 22.3539C8.54437 21.3372 6.80562 19.4331 5.61556 17.2419C4.42403 15.0479 3.75 12.5084 3.75 10.1433ZM12.5 2.75C8.50843 2.75 5.25 6.04748 5.25 10.1433C5.25 12.2404 5.85263 14.5354 6.9337 16.526C8.01624 18.5192 9.54602 20.1496 11.3546 20.995C12.0821 21.335 12.9179 21.335 13.6454 20.995C15.454 20.1496 16.9838 18.5192 18.0663 16.526C19.1474 14.5354 19.75 12.2404 19.75 10.1433C19.75 6.04748 16.4916 2.75 12.5 2.75ZM12.5 7.75C11.2574 7.75 10.25 8.75736 10.25 10C10.25 11.2426 11.2574 12.25 12.5 12.25C13.7426 12.25 14.75 11.2426 14.75 10C14.75 8.75736 13.7426 7.75 12.5 7.75ZM8.75 10C8.75 7.92893 10.4289 6.25 12.5 6.25C14.5711 6.25 16.25 7.92893 16.25 10C16.25 12.0711 14.5711 13.75 12.5 13.75C10.4289 13.75 8.75 12.0711 8.75 10Z" fill="#0029FF"/>
</svg>
