<svg width="25" height="24" viewBox="0 0 25 24" fill="none" xmlns="http://www.w3.org/2000/svg">
<path fill-rule="evenodd" clip-rule="evenodd" d="M12.5 8.25C10.4289 8.25 8.75 9.92893 8.75 12C8.75 14.0711 10.4289 15.75 12.5 15.75C14.5711 15.75 16.25 14.0711 16.25 12C16.25 9.92893 14.5711 8.25 12.5 8.25ZM10.25 12C10.25 10.7574 11.2574 9.75 12.5 9.75C13.7426 9.75 14.75 10.7574 14.75 12C14.75 13.2426 13.7426 14.25 12.5 14.25C11.2574 14.25 10.25 13.2426 10.25 12Z" fill="#0029FF"/>
<path fill-rule="evenodd" clip-rule="evenodd" d="M12.4747 1.25C12.0303 1.24999 11.6592 1.24999 11.3546 1.27077C11.0375 1.29241 10.738 1.33905 10.4476 1.45933C9.77379 1.73844 9.23843 2.27379 8.95932 2.94762C8.81402 3.29842 8.77467 3.66812 8.75964 4.06996C8.74756 4.39299 8.58454 4.66251 8.34395 4.80141C8.10337 4.94031 7.78845 4.94673 7.50266 4.79568C7.14714 4.60777 6.80729 4.45699 6.43083 4.40743C5.70773 4.31223 4.97642 4.50819 4.39779 4.95219C4.14843 5.14353 3.95827 5.3796 3.78099 5.6434C3.61068 5.89681 3.42517 6.21815 3.20294 6.60307L3.17769 6.64681C2.95545 7.03172 2.76993 7.35304 2.63562 7.62723C2.49581 7.91267 2.38644 8.19539 2.34541 8.50701C2.25021 9.23012 2.44617 9.96142 2.89016 10.5401C3.12128 10.8412 3.42173 11.0602 3.76217 11.2741C4.03595 11.4461 4.18788 11.7221 4.18786 12C4.18785 12.2778 4.03592 12.5538 3.76217 12.7258C3.42169 12.9397 3.12121 13.1587 2.89007 13.4599C2.44607 14.0385 2.25012 14.7698 2.34531 15.4929C2.38634 15.8045 2.49571 16.0873 2.63552 16.3727C2.76983 16.6469 2.95535 16.9682 3.17758 17.3531L3.20284 17.3969C3.42507 17.7818 3.61058 18.1031 3.78089 18.3565C3.95817 18.6203 4.14833 18.8564 4.39769 19.0477C4.97632 19.4917 5.70763 19.6877 6.43073 19.5925C6.80717 19.5429 7.147 19.3922 7.5025 19.2043C7.78833 19.0532 8.10329 19.0596 8.3439 19.1986C8.58452 19.3375 8.74756 19.607 8.75964 19.9301C8.77467 20.3319 8.81403 20.7016 8.95932 21.0524C9.23843 21.7262 9.77379 22.2616 10.4476 22.5407C10.738 22.661 11.0375 22.7076 11.3546 22.7292C11.6592 22.75 12.0303 22.75 12.4747 22.75H12.5252C12.9697 22.75 13.3407 22.75 13.6454 22.7292C13.9625 22.7076 14.262 22.661 14.5524 22.5407C15.2262 22.2616 15.7616 21.7262 16.0407 21.0524C16.186 20.7016 16.2253 20.3319 16.2403 19.93C16.2524 19.607 16.4154 19.3375 16.656 19.1985C16.8966 19.0596 17.2116 19.0532 17.4974 19.2042C17.8529 19.3921 18.1927 19.5429 18.5692 19.5924C19.2923 19.6876 20.0236 19.4917 20.6022 19.0477C20.8516 18.8563 21.0417 18.6203 21.219 18.3565C21.3893 18.1031 21.5748 17.7818 21.797 17.3969L21.8223 17.3531C22.0445 16.9682 22.2301 16.6468 22.3644 16.3726C22.5042 16.0872 22.6135 15.8045 22.6546 15.4929C22.7498 14.7697 22.5538 14.0384 22.1098 13.4598C21.8787 13.1586 21.5782 12.9397 21.2378 12.7258C20.964 12.5538 20.8121 12.2778 20.8121 11.9999C20.8121 11.7221 20.964 11.4462 21.2377 11.2742C21.5783 11.0603 21.8788 10.8414 22.1099 10.5401C22.5539 9.96149 22.7499 9.23019 22.6547 8.50708C22.6136 8.19546 22.5043 7.91274 22.3645 7.6273C22.2302 7.35313 22.0447 7.03183 21.8224 6.64695L21.7972 6.60318C21.5749 6.21825 21.3894 5.89688 21.2191 5.64347C21.0418 5.37967 20.8517 5.1436 20.6023 4.95225C20.0237 4.50826 19.2924 4.3123 18.5692 4.4075C18.1928 4.45706 17.853 4.60782 17.4975 4.79572C17.2117 4.94679 16.8967 4.94036 16.6561 4.80144C16.4155 4.66253 16.2524 4.39297 16.2403 4.06991C16.2253 3.66808 16.186 3.2984 16.0407 2.94762C15.7616 2.27379 15.2262 1.73844 14.5524 1.45933C14.262 1.33905 13.9625 1.29241 13.6454 1.27077C13.3407 1.24999 12.9697 1.24999 12.5252 1.25H12.4747ZM11.0216 2.84515C11.0988 2.81319 11.216 2.78372 11.4567 2.76729C11.7042 2.75041 12.0238 2.75 12.5 2.75C12.9762 2.75 13.2958 2.75041 13.5432 2.76729C13.784 2.78372 13.9012 2.81319 13.9783 2.84515C14.2846 2.97202 14.528 3.21536 14.6548 3.52165C14.6949 3.61826 14.728 3.76887 14.7414 4.12597C14.771 4.91835 15.18 5.68129 15.9061 6.10048C16.6321 6.51968 17.4974 6.4924 18.1984 6.12188C18.5143 5.9549 18.6614 5.90832 18.765 5.89467C19.0937 5.8514 19.4261 5.94047 19.6891 6.14228C19.7554 6.19312 19.8395 6.27989 19.9741 6.48016C20.1125 6.68603 20.2726 6.9626 20.5107 7.375C20.7488 7.78741 20.9083 8.06438 21.0174 8.28713C21.1235 8.50382 21.1566 8.62007 21.1675 8.70287C21.2108 9.03155 21.1217 9.36397 20.9199 9.62698C20.8562 9.70995 20.7424 9.81399 20.4397 10.0041C19.7684 10.426 19.3122 11.1616 19.3121 11.9999C19.3121 12.8383 19.7683 13.574 20.4397 13.9959C20.7423 14.186 20.8561 14.29 20.9198 14.373C21.1216 14.636 21.2107 14.9684 21.1674 15.2971C21.1565 15.3799 21.1234 15.4961 21.0173 15.7128C20.9082 15.9355 20.7487 16.2125 20.5106 16.6249C20.2725 17.0373 20.1124 17.3139 19.974 17.5198C19.8394 17.72 19.7553 17.8068 19.689 17.8576C19.426 18.0595 19.0936 18.1485 18.7649 18.1053C18.6613 18.0916 18.5142 18.045 18.1983 17.8781C17.4973 17.5075 16.632 17.4803 15.9059 17.8995C15.18 18.3187 14.771 19.0816 14.7414 19.874C14.728 20.2311 14.6949 20.3817 14.6548 20.4784C14.528 20.7846 14.2846 21.028 13.9783 21.1549C13.9012 21.1868 13.784 21.2163 13.5432 21.2327C13.2958 21.2496 12.9762 21.25 12.5 21.25C12.0238 21.25 11.7042 21.2496 11.4567 21.2327C11.216 21.2163 11.0988 21.1868 11.0216 21.1549C10.7154 21.028 10.472 20.7846 10.3451 20.4784C10.3051 20.3817 10.2719 20.2311 10.2586 19.874C10.229 19.0817 9.81997 18.3187 9.0939 17.8995C8.36784 17.4803 7.50262 17.5076 6.80158 17.8781C6.48565 18.0451 6.33863 18.0917 6.23495 18.1053C5.90626 18.1486 5.57385 18.0595 5.31084 17.8577C5.24458 17.8069 5.16045 17.7201 5.02586 17.5198C4.88751 17.314 4.72736 17.0374 4.48926 16.625C4.25115 16.2126 4.09171 15.9356 3.9826 15.7129C3.87646 15.4962 3.84338 15.3799 3.83248 15.2971C3.78921 14.9684 3.87828 14.636 4.0801 14.373C4.14376 14.2901 4.25761 14.186 4.5602 13.9959C5.23158 13.5741 5.68782 12.8384 5.68786 12.0001C5.68791 11.1616 5.23165 10.4259 4.56021 10.004C4.25769 9.81389 4.14385 9.70987 4.08019 9.62691C3.87838 9.3639 3.78931 9.03149 3.83258 8.7028C3.84348 8.62001 3.87656 8.50375 3.9827 8.28707C4.09181 8.06431 4.25125 7.78734 4.48935 7.37493C4.72746 6.96253 4.8876 6.68596 5.02596 6.48009C5.16055 6.27983 5.24468 6.19305 5.31093 6.14222C5.57395 5.9404 5.90636 5.85133 6.23504 5.8946C6.33873 5.90825 6.48576 5.95483 6.80173 6.12184C7.50273 6.49235 8.36791 6.51962 9.09394 6.10045C9.81998 5.68128 10.229 4.91837 10.2586 4.12602C10.2719 3.76889 10.3051 3.61827 10.3451 3.52165C10.472 3.21536 10.7154 2.97202 11.0216 2.84515Z" fill="#0029FF"/>
</svg>
