<svg width="24" height="25" viewBox="0 0 24 25" fill="none" xmlns="http://www.w3.org/2000/svg">
<path fill-rule="evenodd" clip-rule="evenodd" d="M11.9436 1.87769H12.0564C13.8942 1.87767 15.3498 1.87766 16.489 2.03082C17.6614 2.18845 18.6104 2.52057 19.3588 3.26893C20.1071 4.01729 20.4392 4.96624 20.5969 6.13866C20.6996 6.90273 20.7334 7.80913 20.7445 8.87769H21C21.9665 8.87769 22.75 9.66119 22.75 10.6277V11.6277C22.75 12.1785 22.4907 12.6972 22.05 13.0277L20.7475 14.0045C20.7402 15.237 20.7113 16.2652 20.5969 17.1167C20.4392 18.2891 20.1071 19.2381 19.3588 19.9864C19.1689 20.1763 18.9661 20.3394 18.75 20.4796V21.6277C18.75 22.5942 17.9665 23.3777 17 23.3777H15.5C14.5335 23.3777 13.75 22.5942 13.75 21.6277V21.3722C13.2253 21.3777 12.6616 21.3777 12.0564 21.3777H11.9436C11.3384 21.3777 10.7747 21.3777 10.25 21.3722V21.6277C10.25 22.5942 9.4665 23.3777 8.5 23.3777H7C6.0335 23.3777 5.25 22.5942 5.25 21.6277V20.4796C5.03392 20.3394 4.83112 20.1763 4.64124 19.9864C3.89288 19.2381 3.56076 18.2891 3.40313 17.1167C3.28866 16.2652 3.25975 15.237 3.25246 14.0045L1.95 13.0277C1.50934 12.6972 1.25 12.1785 1.25 11.6277V10.6277C1.25 9.66119 2.0335 8.87769 3 8.87769H3.25546C3.26659 7.80913 3.30041 6.90273 3.40313 6.13866C3.56076 4.96624 3.89288 4.01729 4.64124 3.26893C5.38961 2.52057 6.33855 2.18845 7.51098 2.03082C8.65019 1.87766 10.1058 1.87767 11.9436 1.87769ZM3.25 10.3777H3C2.86193 10.3777 2.75 10.4896 2.75 10.6277V11.6277C2.75 11.7064 2.78705 11.7805 2.85 11.8277L3.25 12.1277L3.25 10.5713C3.25 10.5063 3.25 10.4417 3.25 10.3777ZM4.75573 14.3777C4.76662 15.4113 4.79821 16.2359 4.88976 16.9168C5.02502 17.9229 5.27869 18.5026 5.7019 18.9258C6.12511 19.349 6.70476 19.6027 7.71085 19.7379C8.73851 19.8761 10.0932 19.8777 12 19.8777C13.9068 19.8777 15.2615 19.8761 16.2892 19.7379C17.2952 19.6027 17.8749 19.349 18.2981 18.9258C18.7213 18.5026 18.975 17.9229 19.1102 16.9168C19.2018 16.2359 19.2334 15.4113 19.2443 14.3777H4.75573ZM19.25 12.8777H4.75002C4.75 12.7954 4.75 12.7121 4.75 12.6277V10.6277C4.75 8.74498 4.75155 7.40056 4.88458 6.37769H19.1154C19.2484 7.40056 19.25 8.74498 19.25 10.6277V12.6277C19.25 12.7121 19.25 12.7954 19.25 12.8777ZM20.75 12.1277L21.15 11.8277C21.213 11.7805 21.25 11.7064 21.25 11.6277V10.6277C21.25 10.4896 21.1381 10.3777 21 10.3777H20.75C20.75 10.4417 20.75 10.5063 20.75 10.5713V12.1277ZM18.701 4.87769C18.5882 4.66441 18.4548 4.48628 18.2981 4.32959C17.8749 3.90638 17.2952 3.65271 16.2892 3.51744C15.2615 3.37928 13.9068 3.37769 12 3.37769C10.0932 3.37769 8.73851 3.37928 7.71085 3.51744C6.70476 3.65271 6.12511 3.90638 5.7019 4.32959C5.54522 4.48628 5.41177 4.66441 5.29896 4.87769H18.701ZM6.75 21.0881V21.6277C6.75 21.7658 6.86193 21.8777 7 21.8777H8.5C8.63807 21.8777 8.75 21.7658 8.75 21.6277V21.3319C8.30066 21.3092 7.88845 21.2753 7.51098 21.2246C7.24599 21.1889 6.99242 21.1444 6.75 21.0881ZM15.25 21.3319V21.6277C15.25 21.7658 15.3619 21.8777 15.5 21.8777H17C17.1381 21.8777 17.25 21.7658 17.25 21.6277V21.0881C17.0076 21.1444 16.754 21.1889 16.489 21.2246C16.1116 21.2753 15.6993 21.3092 15.25 21.3319ZM6.25 16.6277C6.25 16.2135 6.58579 15.8777 7 15.8777H8.5C8.91421 15.8777 9.25 16.2135 9.25 16.6277C9.25 17.0419 8.91421 17.3777 8.5 17.3777H7C6.58579 17.3777 6.25 17.0419 6.25 16.6277ZM14.75 16.6277C14.75 16.2135 15.0858 15.8777 15.5 15.8777H17C17.4142 15.8777 17.75 16.2135 17.75 16.6277C17.75 17.0419 17.4142 17.3777 17 17.3777H15.5C15.0858 17.3777 14.75 17.0419 14.75 16.6277Z" fill="#1B2037"/>
</svg>
