<svg width="24" height="25" viewBox="0 0 24 25" fill="none" xmlns="http://www.w3.org/2000/svg">
<path fill-rule="evenodd" clip-rule="evenodd" d="M5.25 8.32799C5.25 4.72984 8.30876 1.87769 12 1.87769C15.608 1.87769 18.6116 4.60257 18.7454 8.08557L19.2231 8.24483C19.6863 8.39917 20.0922 8.53445 20.4142 8.68426C20.7623 8.84621 21.0814 9.05482 21.3253 9.39323C21.5692 9.73163 21.6662 10.1003 21.7098 10.4818C21.7501 10.8346 21.75 11.2625 21.75 11.7507V17.4989C21.75 18.1083 21.7501 18.6282 21.7028 19.0453C21.653 19.484 21.5418 19.9152 21.2404 20.283C21.0674 20.4942 20.8573 20.6722 20.6205 20.8082C20.2081 21.045 19.7645 21.0838 19.3236 21.0607C18.9044 21.0388 18.3915 20.9533 17.7904 20.8531L17.7488 20.8462C16.456 20.6307 15.9351 20.5493 15.4274 20.5918C15.2417 20.6073 15.0571 20.635 14.875 20.6748C14.3774 20.7835 13.8988 21.0168 12.716 21.6082C12.6749 21.6288 12.6342 21.6491 12.594 21.6692C11.2114 22.3608 10.3595 22.7869 9.44031 22.92C9.16384 22.96 8.88482 22.9799 8.60546 22.9793C7.67668 22.9776 6.77995 22.6785 5.32536 22.1934C5.28328 22.1794 5.24074 22.1652 5.19772 22.1508L4.81415 22.023L4.77684 22.0105C4.31373 21.8562 3.90783 21.7209 3.5858 21.5711C3.23766 21.4092 2.91861 21.2005 2.67471 20.8621C2.4308 20.5237 2.33379 20.1551 2.29024 19.7736C2.24995 19.4207 2.24997 18.9929 2.25 18.5047L2.25 13.4849C2.24997 12.6988 2.24994 12.0361 2.31729 11.5172C2.38759 10.9754 2.54652 10.4458 2.98262 10.0475C3.11082 9.9304 3.25213 9.82854 3.40375 9.74395C3.91953 9.45618 4.47226 9.47289 5.00841 9.57751C5.11717 9.59873 5.23109 9.62486 5.35019 9.65522C5.28411 9.20939 5.25 8.76492 5.25 8.32799ZM5.74869 11.337C5.32072 11.1989 4.99224 11.1026 4.72113 11.0497C4.32599 10.9726 4.19646 11.0193 4.13459 11.0539C4.08405 11.0821 4.03694 11.116 3.99421 11.155C3.9419 11.2028 3.85663 11.3109 3.80482 11.7102C3.75151 12.121 3.75 12.6852 3.75 13.5357V18.4654C3.75 19.0045 3.75114 19.3458 3.78055 19.6035C3.80779 19.842 3.85234 19.9307 3.89157 19.9851C3.9308 20.0395 4.00083 20.1098 4.21849 20.2111C4.45364 20.3205 4.77709 20.4295 5.28849 20.5999L5.67205 20.7278C7.29563 21.269 7.95089 21.4781 8.6083 21.4793C8.81478 21.4797 9.02101 21.4651 9.22537 21.4355C9.87582 21.3413 10.5009 21.0387 12.0452 20.2666C12.0765 20.2509 12.1074 20.2354 12.138 20.2201C13.1987 19.6897 13.852 19.3629 14.555 19.2094C14.8014 19.1556 15.051 19.118 15.3023 19.097C16.0193 19.037 16.7344 19.1563 17.8945 19.3498C17.9278 19.3553 17.9614 19.3609 17.9954 19.3666C18.6497 19.4756 19.0779 19.5458 19.4019 19.5628C19.7138 19.5791 19.821 19.5375 19.8735 19.5074C19.9524 19.4621 20.0225 19.4027 20.0801 19.3323C20.1185 19.2855 20.1771 19.1866 20.2123 18.8763C20.2489 18.5538 20.25 18.1199 20.25 17.4567V11.79C20.25 11.2509 20.2489 10.9096 20.2195 10.6519C20.1922 10.4134 20.1477 10.3247 20.1084 10.2703C20.0692 10.2159 19.9992 10.1456 19.7815 10.0443C19.5464 9.9349 19.2229 9.82589 18.7115 9.65543L18.6527 9.63581C18.4625 10.9372 17.9996 12.251 17.3173 13.4236C16.4048 14.9917 15.0697 16.3575 13.3971 17.0872C12.5094 17.4745 11.4906 17.4745 10.6029 17.0872C8.93027 16.3575 7.59519 14.9917 6.68273 13.4236C6.29871 12.7637 5.9842 12.059 5.74869 11.337ZM12 3.37769C9.06383 3.37769 6.75 5.62976 6.75 8.32799C6.75 9.74543 7.18744 11.3085 7.97922 12.6692C8.77121 14.0303 9.88753 15.1386 11.2027 15.7124C11.708 15.9328 12.292 15.9328 12.7973 15.7124C14.1125 15.1386 15.2288 14.0303 16.0208 12.6692C16.8126 11.3085 17.25 9.74543 17.25 8.32799C17.25 5.62976 14.9362 3.37769 12 3.37769ZM12 7.37769C11.3096 7.37769 10.75 7.93733 10.75 8.62769C10.75 9.31804 11.3096 9.87769 12 9.87769C12.6904 9.87769 13.25 9.31804 13.25 8.62769C13.25 7.93733 12.6904 7.37769 12 7.37769ZM9.25 8.62769C9.25 7.1089 10.4812 5.87769 12 5.87769C13.5188 5.87769 14.75 7.1089 14.75 8.62769C14.75 10.1465 13.5188 11.3777 12 11.3777C10.4812 11.3777 9.25 10.1465 9.25 8.62769Z" fill="#1B2037"/>
</svg>
