<svg width="24" height="25" viewBox="0 0 24 25" fill="none" xmlns="http://www.w3.org/2000/svg">
<path fill-rule="evenodd" clip-rule="evenodd" d="M6.448 2.37769C5.54954 2.37766 4.8003 2.37763 4.20552 2.4576C3.57773 2.542 3.01093 2.72768 2.55546 3.18315C2.09999 3.63862 1.91432 4.20542 1.82991 4.83321C1.74995 5.42798 1.74997 6.17719 1.75 7.07566V7.17969C1.74997 8.07816 1.74995 8.82739 1.82991 9.42217C1.91432 10.05 2.09999 10.6168 2.55546 11.0722C3.01093 11.5277 3.57773 11.7134 4.20552 11.7978C4.8003 11.8777 5.54951 11.8777 6.44798 11.8777H6.552C7.45047 11.8777 8.19971 11.8777 8.79448 11.7978C9.42228 11.7134 9.98908 11.5277 10.4445 11.0722C10.9 10.6168 11.0857 10.05 11.1701 9.42217C11.2501 8.82739 11.25 8.07818 11.25 7.17971V7.07569C11.25 6.17723 11.2501 5.42798 11.1701 4.83321C11.0857 4.20542 10.9 3.63862 10.4445 3.18315C9.98908 2.72768 9.42228 2.542 8.79448 2.4576C8.19971 2.37763 7.4505 2.37766 6.55203 2.37769H6.448ZM3.61612 4.24381C3.74644 4.11349 3.94393 4.00627 4.4054 3.94422C4.88843 3.87928 5.53599 3.87769 6.5 3.87769C7.46401 3.87769 8.11157 3.87928 8.59461 3.94422C9.05607 4.00627 9.25357 4.11349 9.38389 4.24381C9.5142 4.37412 9.62143 4.57162 9.68347 5.03308C9.74841 5.51612 9.75 6.16368 9.75 7.12769C9.75 8.0917 9.74841 8.73926 9.68347 9.2223C9.62143 9.68376 9.5142 9.88126 9.38389 10.0116C9.25357 10.1419 9.05607 10.2491 8.59461 10.3112C8.11157 10.3761 7.46401 10.3777 6.5 10.3777C5.53599 10.3777 4.88843 10.3761 4.4054 10.3112C3.94393 10.2491 3.74644 10.1419 3.61612 10.0116C3.4858 9.88126 3.37858 9.68376 3.31654 9.2223C3.2516 8.73926 3.25 8.0917 3.25 7.12769C3.25 6.16368 3.2516 5.51612 3.31654 5.03308C3.37858 4.57162 3.4858 4.37412 3.61612 4.24381Z" fill="#1B2037"/>
<path fill-rule="evenodd" clip-rule="evenodd" d="M17.448 13.3777C16.5495 13.3777 15.8003 13.3776 15.2055 13.4576C14.5777 13.542 14.0109 13.7277 13.5555 14.1831C13.1 14.6386 12.9143 15.2054 12.8299 15.8332C12.7499 16.428 12.75 17.1772 12.75 18.0757V18.1797C12.75 19.0782 12.7499 19.8274 12.8299 20.4222C12.9143 21.05 13.1 21.6168 13.5555 22.0722C14.0109 22.5277 14.5777 22.7134 15.2055 22.7978C15.8003 22.8777 16.5495 22.8777 17.4479 22.8777H17.552C18.4504 22.8777 19.1997 22.8777 19.7945 22.7978C20.4223 22.7134 20.9891 22.5277 21.4445 22.0722C21.9 21.6168 22.0857 21.05 22.1701 20.4222C22.2501 19.8274 22.25 19.0782 22.25 18.1798V18.0757C22.25 17.1773 22.2501 16.428 22.1701 15.8332C22.0857 15.2054 21.9 14.6386 21.4445 14.1831C20.9891 13.7277 20.4223 13.542 19.7945 13.4576C19.1997 13.3776 18.4505 13.3777 17.552 13.3777H17.448ZM14.6161 15.2438C14.7464 15.1135 14.9439 15.0063 15.4054 14.9442C15.8884 14.8793 16.536 14.8777 17.5 14.8777C18.464 14.8777 19.1116 14.8793 19.5946 14.9442C20.0561 15.0063 20.2536 15.1135 20.3839 15.2438C20.5142 15.3741 20.6214 15.5716 20.6835 16.0331C20.7484 16.5161 20.75 17.1637 20.75 18.1277C20.75 19.0917 20.7484 19.7393 20.6835 20.2223C20.6214 20.6838 20.5142 20.8813 20.3839 21.0116C20.2536 21.1419 20.0561 21.2491 19.5946 21.3112C19.1116 21.3761 18.464 21.3777 17.5 21.3777C16.536 21.3777 15.8884 21.3761 15.4054 21.3112C14.9439 21.2491 14.7464 21.1419 14.6161 21.0116C14.4858 20.8813 14.3786 20.6838 14.3165 20.2223C14.2516 19.7393 14.25 19.0917 14.25 18.1277C14.25 17.1637 14.2516 16.5161 14.3165 16.0331C14.3786 15.5716 14.4858 15.3741 14.6161 15.2438Z" fill="#1B2037"/>
<path fill-rule="evenodd" clip-rule="evenodd" d="M6.448 13.3777H6.552C7.45048 13.3777 8.1997 13.3776 8.79448 13.4576C9.42228 13.542 9.98908 13.7277 10.4445 14.1831C10.9 14.6386 11.0857 15.2054 11.1701 15.8332C11.2501 16.428 11.25 17.1772 11.25 18.0757V18.1797C11.25 19.0782 11.2501 19.8274 11.1701 20.4222C11.0857 21.05 10.9 21.6168 10.4445 22.0722C9.98908 22.5277 9.42228 22.7134 8.79448 22.7978C8.19971 22.8777 7.45051 22.8777 6.55206 22.8777H6.44801C5.54955 22.8777 4.80029 22.8777 4.20552 22.7978C3.57773 22.7134 3.01093 22.5277 2.55546 22.0722C2.09999 21.6168 1.91432 21.05 1.82991 20.4222C1.74995 19.8274 1.74997 19.0782 1.75 18.1797V18.0757C1.74997 17.1772 1.74995 16.428 1.82991 15.8332C1.91432 15.2054 2.09999 14.6386 2.55546 14.1831C3.01093 13.7277 3.57773 13.542 4.20552 13.4576C4.8003 13.3776 5.54952 13.3777 6.448 13.3777ZM4.4054 14.9442C3.94393 15.0063 3.74644 15.1135 3.61612 15.2438C3.4858 15.3741 3.37858 15.5716 3.31654 16.0331C3.2516 16.5161 3.25 17.1637 3.25 18.1277C3.25 19.0917 3.2516 19.7393 3.31654 20.2223C3.37858 20.6838 3.4858 20.8813 3.61612 21.0116C3.74644 21.1419 3.94393 21.2491 4.4054 21.3112C4.88843 21.3761 5.53599 21.3777 6.5 21.3777C7.46401 21.3777 8.11157 21.3761 8.59461 21.3112C9.05607 21.2491 9.25357 21.1419 9.38389 21.0116C9.5142 20.8813 9.62143 20.6838 9.68347 20.2223C9.74841 19.7393 9.75 19.0917 9.75 18.1277C9.75 17.1637 9.74841 16.5161 9.68347 16.0331C9.62143 15.5716 9.5142 15.3741 9.38389 15.2438C9.25357 15.1135 9.05607 15.0063 8.59461 14.9442C8.11157 14.8793 7.46401 14.8777 6.5 14.8777C5.53599 14.8777 4.88843 14.8793 4.4054 14.9442Z" fill="#1B2037"/>
<path fill-rule="evenodd" clip-rule="evenodd" d="M17.448 2.37769C16.5495 2.37766 15.8003 2.37763 15.2055 2.4576C14.5777 2.542 14.0109 2.72768 13.5555 3.18315C13.1 3.63862 12.9143 4.20542 12.8299 4.83321C12.7499 5.42799 12.75 6.17721 12.75 7.07569V7.17969C12.75 8.07817 12.7499 8.82739 12.8299 9.42217C12.9143 10.05 13.1 10.6168 13.5555 11.0722C14.0109 11.5277 14.5777 11.7134 15.2055 11.7978C15.8003 11.8777 16.5495 11.8777 17.448 11.8777H17.552C18.4505 11.8777 19.1997 11.8777 19.7945 11.7978C20.4223 11.7134 20.9891 11.5277 21.4445 11.0722C21.9 10.6168 22.0857 10.05 22.1701 9.42217C22.2501 8.82739 22.25 8.07818 22.25 7.17971V7.07569C22.25 6.17723 22.2501 5.42798 22.1701 4.83321C22.0857 4.20542 21.9 3.63862 21.4445 3.18315C20.9891 2.72768 20.4223 2.542 19.7945 2.4576C19.1997 2.37763 18.4505 2.37766 17.552 2.37769H17.448ZM14.6161 4.24381C14.7464 4.11349 14.9439 4.00627 15.4054 3.94422C15.8884 3.87928 16.536 3.87769 17.5 3.87769C18.464 3.87769 19.1116 3.87928 19.5946 3.94422C20.0561 4.00627 20.2536 4.11349 20.3839 4.24381C20.5142 4.37412 20.6214 4.57162 20.6835 5.03308C20.7484 5.51612 20.75 6.16368 20.75 7.12769C20.75 8.0917 20.7484 8.73926 20.6835 9.2223C20.6214 9.68376 20.5142 9.88126 20.3839 10.0116C20.2536 10.1419 20.0561 10.2491 19.5946 10.3112C19.1116 10.3761 18.464 10.3777 17.5 10.3777C16.536 10.3777 15.8884 10.3761 15.4054 10.3112C14.9439 10.2491 14.7464 10.1419 14.6161 10.0116C14.4858 9.88126 14.3786 9.68376 14.3165 9.2223C14.2516 8.73926 14.25 8.0917 14.25 7.12769C14.25 6.16368 14.2516 5.51612 14.3165 5.03308C14.3786 4.57162 14.4858 4.37412 14.6161 4.24381Z" fill="#1B2037"/>
</svg>
