<svg width="24" height="25" viewBox="0 0 24 25" fill="none" xmlns="http://www.w3.org/2000/svg">
<path fill-rule="evenodd" clip-rule="evenodd" d="M4.25 9.14232C4.25 5.08033 7.77146 1.87769 12 1.87769C16.2285 1.87769 19.75 5.08033 19.75 9.14232C19.75 12.9535 17.3871 17.4277 13.5748 19.0569C12.574 19.4846 11.426 19.4846 10.4252 19.0569C6.61289 17.4277 4.25 12.9535 4.25 9.14232ZM12 3.37769C8.49655 3.37769 5.75 6.00845 5.75 9.14232C5.75 12.4707 7.85543 16.3275 11.0147 17.6776C11.639 17.9444 12.361 17.9444 12.9853 17.6776C16.1446 16.3275 18.25 12.4707 18.25 9.14232C18.25 6.00845 15.5034 3.37769 12 3.37769ZM12 8.37769C11.3096 8.37769 10.75 8.93733 10.75 9.62769C10.75 10.318 11.3096 10.8777 12 10.8777C12.6904 10.8777 13.25 10.318 13.25 9.62769C13.25 8.93733 12.6904 8.37769 12 8.37769ZM9.25 9.62769C9.25 8.1089 10.4812 6.87769 12 6.87769C13.5188 6.87769 14.75 8.1089 14.75 9.62769C14.75 11.1465 13.5188 12.3777 12 12.3777C10.4812 12.3777 9.25 11.1465 9.25 9.62769ZM3.59541 15.6243C3.87344 15.9313 3.84992 16.4056 3.54288 16.6836C2.97519 17.1977 2.75 17.6898 2.75 18.1277C2.75 18.8914 3.47401 19.8325 5.23671 20.6257C6.929 21.3873 9.31952 21.8777 12 21.8777C14.6805 21.8777 17.071 21.3873 18.7633 20.6257C20.526 19.8325 21.25 18.8914 21.25 18.1277C21.25 17.6898 21.0248 17.1977 20.4571 16.6836C20.1501 16.4056 20.1266 15.9313 20.4046 15.6243C20.6826 15.3172 21.1569 15.2937 21.4639 15.5717C22.227 16.2626 22.75 17.1288 22.75 18.1277C22.75 19.8493 21.2354 21.1581 19.3788 21.9936C17.4518 22.8608 14.8424 23.3777 12 23.3777C9.15764 23.3777 6.54815 22.8608 4.62116 21.9936C2.76457 21.1581 1.25 19.8493 1.25 18.1277C1.25 17.1288 1.77305 16.2626 2.53605 15.5717C2.84309 15.2937 3.31738 15.3172 3.59541 15.6243Z" fill="#1B2037"/>
</svg>
