<svg width="24" height="25" viewBox="0 0 24 25" fill="none" xmlns="http://www.w3.org/2000/svg">
<path fill-rule="evenodd" clip-rule="evenodd" d="M5 3.37769C3.75736 3.37769 2.75 4.38504 2.75 5.62769C2.75 6.87033 3.75736 7.87769 5 7.87769C6.24264 7.87769 7.25 6.87033 7.25 5.62769C7.25 4.38504 6.24264 3.37769 5 3.37769ZM1.25 5.62769C1.25 3.55662 2.92893 1.87769 5 1.87769C7.07107 1.87769 8.75 3.55662 8.75 5.62769C8.75 7.69875 7.07107 9.37769 5 9.37769C2.92893 9.37769 1.25 7.69875 1.25 5.62769ZM10.25 5.62769C10.25 5.21347 10.5858 4.87769 11 4.87769H16.1319C18.8831 4.87769 19.9294 8.47069 17.6083 9.94775L7.19703 16.5731C6.14197 17.2445 6.61756 18.8777 7.86812 18.8777H11.1893L10.9697 18.658C10.6768 18.3651 10.6768 17.8902 10.9697 17.5974C11.2626 17.3045 11.7374 17.3045 12.0303 17.5974L13.5303 19.0974C13.8232 19.3902 13.8232 19.8651 13.5303 20.158L12.0303 21.658C11.7374 21.9509 11.2626 21.9509 10.9697 21.658C10.6768 21.3651 10.6768 20.8902 10.9697 20.5974L11.1893 20.3777H7.86812C5.11688 20.3777 4.07062 16.7847 6.39172 15.3076L16.803 8.68226C17.858 8.01087 17.3824 6.37769 16.1319 6.37769H11C10.5858 6.37769 10.25 6.0419 10.25 5.62769ZM19 17.3777C17.7574 17.3777 16.75 18.385 16.75 19.6277C16.75 20.8703 17.7574 21.8777 19 21.8777C20.2426 21.8777 21.25 20.8703 21.25 19.6277C21.25 18.385 20.2426 17.3777 19 17.3777ZM15.25 19.6277C15.25 17.5566 16.9289 15.8777 19 15.8777C21.0711 15.8777 22.75 17.5566 22.75 19.6277C22.75 21.6988 21.0711 23.3777 19 23.3777C16.9289 23.3777 15.25 21.6988 15.25 19.6277Z" fill="#1B2037"/>
</svg>
